<svg width="13" height="11" viewBox="0 0 13 11" fill="none" xmlns="http://www.w3.org/2000/svg">
<path fill-rule="evenodd" clip-rule="evenodd" d="M3.5 3.5C2.39543 3.5 1.5 4.39543 1.5 5.5C1.5 6.60457 2.39543 7.5 3.5 7.5H5C5.27614 7.5 5.5 7.72386 5.5 8C5.5 8.27614 5.27614 8.5 5 8.5H3.5C1.84315 8.5 0.5 7.15685 0.5 5.5C0.5 3.84315 1.84315 2.5 3.5 2.5H5C5.27614 2.5 5.5 2.72386 5.5 3C5.5 3.27614 5.27614 3.5 5 3.5H3.5ZM9.5 3.5C10.6046 3.5 11.5 4.39543 11.5 5.5C11.5 6.60457 10.6046 7.5 9.5 7.5H8C7.72386 7.5 7.5 7.72386 7.5 8C7.5 8.27614 7.72386 8.5 8 8.5H9.5C11.1569 8.5 12.5 7.15685 12.5 5.5C12.5 3.84315 11.1569 2.5 9.5 2.5H8C7.72386 2.5 7.5 2.72386 7.5 3C7.5 3.27614 7.72386 3.5 8 3.5H9.5ZM4.5 5C4.22386 5 4 5.22386 4 5.5C4 5.77614 4.22386 6 4.5 6H8.5C8.77614 6 9 5.77614 9 5.5C9 5.22386 8.77614 5 8.5 5H4.5Z" fill="#0070F3"/>
</svg>
