<svg width="13" height="11" viewBox="0 0 13 11" fill="none" xmlns="http://www.w3.org/2000/svg">
<path fill-rule="evenodd" clip-rule="evenodd" d="M1.5 5.5C1.5 4.39543 2.39543 3.5 3.5 3.5H5C5.27614 3.5 5.5 3.27614 5.5 3C5.5 2.72386 5.27614 2.5 5 2.5H3.5C1.84315 2.5 0.5 3.84315 0.5 5.5C0.5 7.15685 1.84315 8.5 3.5 8.5H5C5.27614 8.5 5.5 8.27614 5.5 8C5.5 7.72386 5.27614 7.5 5 7.5H3.5C2.39543 7.5 1.5 6.60457 1.5 5.5ZM11.5 5.5C11.5 4.39543 10.6046 3.5 9.5 3.5H8C7.72386 3.5 7.5 3.27614 7.5 3C7.5 2.72386 7.72386 2.5 8 2.5H9.5C11.1569 2.5 12.5 3.84315 12.5 5.5C12.5 7.15685 11.1569 8.5 9.5 8.5H8C7.72386 8.5 7.5 8.27614 7.5 8C7.5 7.72386 7.72386 7.5 8 7.5H9.5C10.6046 7.5 11.5 6.60457 11.5 5.5Z" fill="#BFBFBF"/>
</svg>
